<svg width="32" height="34" viewBox="0 0 32 34" fill="none" xmlns="http://www.w3.org/2000/svg">
<path d="M5.05263 0H26.9474C28.2874 0 29.5726 0.5656 30.5201 1.57237C31.4677 2.57915 32 3.94463 32 5.36842V21.4737C32 22.8975 31.4677 24.263 30.5201 25.2697C29.5726 26.2765 28.2874 26.8421 26.9474 26.8421H19.2168L12.9853 33.4811C12.6821 33.8032 12.2611 34 11.7895 34C11.3428 34 10.9144 33.8115 10.5986 33.4759C10.2827 33.1403 10.1053 32.6851 10.1053 32.2105V26.8421H5.05263C3.71259 26.8421 2.42743 26.2765 1.47988 25.2697C0.532329 24.263 0 22.8975 0 21.4737V5.36842C0 3.94463 0.532329 2.57915 1.47988 1.57237C2.42743 0.5656 3.71259 0 5.05263 0ZM26.9474 1.78947H5.05263C4.15927 1.78947 3.3025 2.16654 2.6708 2.83772C2.0391 3.50891 1.68421 4.41923 1.68421 5.36842V21.4737C1.68421 22.4229 2.0391 23.3332 2.6708 24.0044C3.3025 24.6756 4.15927 25.0526 5.05263 25.0526H11.7895V32.2105L18.5263 25.0526H26.9474C27.8407 25.0526 28.6975 24.6756 29.3292 24.0044C29.9609 23.3332 30.3158 22.4229 30.3158 21.4737V5.36842C30.3158 4.41923 29.9609 3.50891 29.3292 2.83772C28.6975 2.16654 27.8407 1.78947 26.9474 1.78947Z" fill="black" fill-opacity="0.5"/>
</svg>
