<svg width="129" height="28" viewBox="0 0 129 28" fill="none" xmlns="http://www.w3.org/2000/svg">
<path d="M120.712 27.3203C118.835 27.3203 117.203 26.9469 115.816 26.2003C114.429 25.4323 113.352 24.3976 112.584 23.0963C111.816 21.7736 111.432 20.2696 111.432 18.5843C111.432 17.2829 111.645 16.0883 112.072 15.0003C112.499 13.9123 113.096 12.9736 113.864 12.1842C114.632 11.3736 115.539 10.7549 116.584 10.3283C117.651 9.88025 118.813 9.65625 120.072 9.65625C121.267 9.65625 122.355 9.86958 123.336 10.2963C124.339 10.7229 125.203 11.3202 125.928 12.0882C126.653 12.8562 127.208 13.7629 127.592 14.8083C127.976 15.8536 128.147 16.9949 128.104 18.2323L128.072 19.6083H114.536L113.8 16.7283H123.912L123.368 17.3363V16.6963C123.325 16.1629 123.155 15.6936 122.856 15.2882C122.579 14.8616 122.205 14.5309 121.736 14.2962C121.267 14.0616 120.733 13.9443 120.136 13.9443C119.304 13.9443 118.589 14.1149 117.992 14.4563C117.416 14.7763 116.979 15.2563 116.68 15.8963C116.381 16.5149 116.232 17.2829 116.232 18.2003C116.232 19.1389 116.424 19.9603 116.808 20.6643C117.213 21.3469 117.789 21.8803 118.536 22.2643C119.304 22.6483 120.211 22.8403 121.256 22.8403C121.981 22.8403 122.621 22.7336 123.176 22.5203C123.752 22.3069 124.371 21.9443 125.032 21.4323L127.432 24.8243C126.771 25.4003 126.067 25.8696 125.32 26.2323C124.573 26.5949 123.805 26.8616 123.016 27.0323C122.248 27.2243 121.48 27.3203 120.712 27.3203Z" fill="white"/>
<path d="M104.642 26.9998L101.026 21.5278L99.3624 19.1918L92.6424 10.0078H98.7864L102.274 15.2238L104.098 17.7198L110.722 26.9998H104.642ZM92.4824 26.9998L99.3304 17.4638L102.082 20.7598L98.5304 26.9998H92.4824ZM103.714 19.6078L100.994 16.3438L104.354 10.0078H110.402L103.714 19.6078Z" fill="white"/>
<path d="M78.091 0.312012C80.523 0.312012 82.603 0.776012 84.331 1.70401C86.091 2.63201 87.451 3.97602 88.411 5.73602C89.371 7.49602 89.851 9.65602 89.851 12.216V15.672H72.955C73.019 17.688 73.611 19.272 74.731 20.424C75.883 21.576 77.467 22.152 79.483 22.152C81.179 22.152 82.715 21.992 84.091 21.672C85.467 21.32 86.891 20.792 88.363 20.088V25.608C87.083 26.248 85.723 26.712 84.283 27C82.875 27.32 81.163 27.48 79.147 27.48C76.523 27.48 74.203 27 72.187 26.04C70.171 25.048 68.587 23.56 67.435 21.576C66.283 19.592 65.707 17.096 65.707 14.088C65.707 11.016 66.219 8.47201 67.243 6.45601C68.299 4.40801 69.755 2.87201 71.611 1.84801C73.467 0.824013 75.627 0.312012 78.091 0.312012ZM78.139 5.40001C76.763 5.40001 75.611 5.84801 74.683 6.74401C73.787 7.64001 73.259 9.03201 73.099 10.92H83.131C83.131 9.86401 82.939 8.92001 82.555 8.08801C82.203 7.25601 81.659 6.60001 80.923 6.12001C80.187 5.64001 79.259 5.40001 78.139 5.40001Z" fill="white"/>
<path d="M55.1653 27.3203C53.2879 27.3203 51.6559 26.9469 50.2693 26.2003C48.8826 25.4323 47.8053 24.3976 47.0373 23.0963C46.2693 21.7736 45.8853 20.2696 45.8853 18.5843C45.8853 17.2829 46.0986 16.0883 46.5253 15.0003C46.9519 13.9123 47.5493 12.9736 48.3173 12.1842C49.0853 11.3736 49.9919 10.7549 51.0373 10.3283C52.1039 9.88025 53.2666 9.65625 54.5253 9.65625C55.7199 9.65625 56.8079 9.86958 57.7893 10.2963C58.7919 10.7229 59.6559 11.3202 60.3813 12.0882C61.1066 12.8562 61.6613 13.7629 62.0453 14.8083C62.4293 15.8536 62.5999 16.9949 62.5573 18.2323L62.5252 19.6083H48.9893L48.2533 16.7283H58.3653L57.8213 17.3363V16.6963C57.7786 16.1629 57.6079 15.6936 57.3093 15.2882C57.0319 14.8616 56.6586 14.5309 56.1893 14.2962C55.7199 14.0616 55.1866 13.9443 54.5893 13.9443C53.7573 13.9443 53.0426 14.1149 52.4453 14.4563C51.8693 14.7763 51.4319 15.2563 51.1333 15.8963C50.8346 16.5149 50.6853 17.2829 50.6853 18.2003C50.6853 19.1389 50.8773 19.9603 51.2613 20.6643C51.6666 21.3469 52.2426 21.8803 52.9893 22.2643C53.7573 22.6483 54.6639 22.8403 55.7093 22.8403C56.4346 22.8403 57.0746 22.7336 57.6293 22.5203C58.2053 22.3069 58.8239 21.9443 59.4853 21.4323L61.8853 24.8243C61.2239 25.4003 60.5199 25.8696 59.7733 26.2323C59.0266 26.5949 58.2586 26.8616 57.4693 27.0323C56.7013 27.2243 55.9333 27.3203 55.1653 27.3203Z" fill="white"/>
<path d="M39.0955 26.9998L35.4795 21.5278L33.8155 19.1918L27.0955 10.0078H33.2395L36.7275 15.2238L38.5515 17.7198L45.1755 26.9998H39.0955ZM26.9355 26.9998L33.7835 17.4638L36.5355 20.7598L32.9835 26.9998H26.9355ZM38.1675 19.6078L35.4475 16.3438L38.8075 10.0078H44.8555L38.1675 19.6078Z" fill="white"/>
<path d="M12.5442 0.312012C14.9762 0.312012 17.0562 0.776012 18.7842 1.70401C20.5442 2.63201 21.9042 3.97602 22.8642 5.73602C23.8242 7.49602 24.3042 9.65602 24.3042 12.216V15.672H7.40816C7.47216 17.688 8.06416 19.272 9.18416 20.424C10.3362 21.576 11.9202 22.152 13.9362 22.152C15.6322 22.152 17.1682 21.992 18.5442 21.672C19.9202 21.32 21.3442 20.792 22.8162 20.088V25.608C21.5362 26.248 20.1762 26.712 18.7362 27C17.3282 27.32 15.6162 27.48 13.6002 27.48C10.9762 27.48 8.65616 27 6.64016 26.04C4.62416 25.048 3.04016 23.56 1.88816 21.576C0.736156 19.592 0.160156 17.096 0.160156 14.088C0.160156 11.016 0.672156 8.47201 1.69616 6.45601C2.75216 4.40801 4.20816 2.87201 6.06416 1.84801C7.92016 0.824013 10.0802 0.312012 12.5442 0.312012ZM12.5922 5.40001C11.2162 5.40001 10.0642 5.84801 9.13616 6.74401C8.24016 7.64001 7.71216 9.03201 7.55216 10.92H17.5842C17.5842 9.86401 17.3922 8.92001 17.0082 8.08801C16.6562 7.25601 16.1122 6.60001 15.3762 6.12001C14.6402 5.64001 13.7122 5.40001 12.5922 5.40001Z" fill="white"/>
</svg>
