<svg width="37" height="37" viewBox="0 0 37 37" fill="none" xmlns="http://www.w3.org/2000/svg">
<path d="M16.3417 20.4271L13.0271 17.1125C12.7444 16.8299 12.3847 16.6886 11.9479 16.6886C11.5111 16.6886 11.1514 16.8299 10.8688 17.1125C10.5861 17.3952 10.4448 17.7549 10.4448 18.1917C10.4448 18.6285 10.5861 18.9882 10.8688 19.2709L15.2625 23.6646C15.5708 23.9729 15.9306 24.1271 16.3417 24.1271C16.7528 24.1271 17.1125 23.9729 17.4208 23.6646L26.1313 14.9542C26.4139 14.6715 26.5552 14.3118 26.5552 13.875C26.5552 13.4382 26.4139 13.0785 26.1313 12.7959C25.8486 12.5132 25.4889 12.3719 25.0521 12.3719C24.6153 12.3719 24.2556 12.5132 23.9729 12.7959L16.3417 20.4271ZM7.70833 32.375C6.86042 32.375 6.13481 32.0734 5.5315 31.4701C4.92819 30.8668 4.62603 30.1406 4.625 29.2917V7.70835C4.625 6.86044 4.92717 6.13483 5.5315 5.53152C6.13583 4.92821 6.86144 4.62605 7.70833 4.62502H14.1833C14.5174 3.70002 15.0765 2.95488 15.8607 2.3896C16.6449 1.82433 17.5246 1.54169 18.5 1.54169C19.4754 1.54169 20.3557 1.82433 21.1409 2.3896C21.9261 2.95488 22.4847 3.70002 22.8167 4.62502H29.2917C30.1396 4.62502 30.8657 4.92719 31.47 5.53152C32.0744 6.13585 32.376 6.86146 32.375 7.70835V29.2917C32.375 30.1396 32.0733 30.8657 31.47 31.4701C30.8667 32.0744 30.1406 32.376 29.2917 32.375H7.70833ZM18.5 6.5521C18.834 6.5521 19.1105 6.44265 19.3294 6.22373C19.5483 6.00481 19.6573 5.72885 19.6563 5.39585C19.6552 5.06285 19.5458 4.7869 19.3279 4.56798C19.11 4.34906 18.834 4.2396 18.5 4.2396C18.166 4.2396 17.89 4.34906 17.6721 4.56798C17.4542 4.7869 17.3448 5.06285 17.3438 5.39585C17.3427 5.72885 17.4522 6.00533 17.6721 6.22527C17.8921 6.44521 18.168 6.55416 18.5 6.5521Z" fill="#FFBE20"/>
</svg>
