<svg width="7" height="35" viewBox="0 0 7 35" fill="none" xmlns="http://www.w3.org/2000/svg">
<path d="M1 31.5793C1 32.8784 2.1032 33.9316 3.46406 33.9316C4.82493 33.9316 5.92813 32.8784 5.92813 31.5793C5.92813 30.2802 4.82493 29.2271 3.46406 29.2271C2.1032 29.2271 1 30.2802 1 31.5793Z" fill="black"/>
<path d="M1 17.4658C1 18.7649 2.1032 19.818 3.46406 19.818C4.82493 19.818 5.92813 18.7649 5.92813 17.4658C5.92813 16.1667 4.82493 15.1135 3.46406 15.1135C2.1032 15.1135 1 16.1667 1 17.4658Z" fill="black"/>
<path d="M1 3.35225C1 4.65137 2.1032 5.70451 3.46406 5.70451C4.82493 5.70451 5.92813 4.65137 5.92813 3.35225C5.92813 2.05314 4.82493 1 3.46406 1C2.1032 1 1 2.05314 1 3.35225Z" fill="black"/>
<path d="M1 31.5793C1 32.8784 2.1032 33.9316 3.46406 33.9316C4.82493 33.9316 5.92813 32.8784 5.92813 31.5793C5.92813 30.2802 4.82493 29.2271 3.46406 29.2271C2.1032 29.2271 1 30.2802 1 31.5793Z" stroke="black" stroke-width="0.823289" stroke-linecap="round" stroke-linejoin="round"/>
<path d="M1 17.4658C1 18.7649 2.1032 19.818 3.46406 19.818C4.82493 19.818 5.92813 18.7649 5.92813 17.4658C5.92813 16.1667 4.82493 15.1135 3.46406 15.1135C2.1032 15.1135 1 16.1667 1 17.4658Z" stroke="black" stroke-width="0.823289" stroke-linecap="round" stroke-linejoin="round"/>
<path d="M1 3.35225C1 4.65137 2.1032 5.70451 3.46406 5.70451C4.82493 5.70451 5.92813 4.65137 5.92813 3.35225C5.92813 2.05314 4.82493 1 3.46406 1C2.1032 1 1 2.05314 1 3.35225Z" stroke="black" stroke-width="0.823289" stroke-linecap="round" stroke-linejoin="round"/>
</svg>
