<svg width="48" height="48" viewBox="0 0 48 48" fill="none" xmlns="http://www.w3.org/2000/svg">
<g clip-path="url(#clip0_579_264)">
<g filter="url(#filter0_d_579_264)">
<mask id="path-1-inside-1_579_264" fill="white">
<path d="M2.5 21C2.5 21.3978 2.65804 21.7794 2.93934 22.0607C3.22064 22.342 3.60218 22.5 4 22.5C4.39782 22.5 4.77936 22.342 5.06066 22.0607C5.34196 21.7794 5.5 21.3978 5.5 21H2.5ZM6.148 31.252C5.99577 30.8844 5.70374 30.5924 5.33617 30.4401C4.9686 30.2878 4.55559 30.2878 4.188 30.44C3.82041 30.5922 3.52835 30.8843 3.37607 31.2518C3.22379 31.6194 3.22377 32.0324 3.376 32.4L6.148 31.252ZM27.464 43.54L28.548 41.708L25.968 40.18L24.882 42.012L27.464 43.54ZM19.452 41.708L20.536 43.54L23.116 42.012L22.034 40.18L19.452 41.708ZM24.882 42.012C24.7885 42.1616 24.6585 42.285 24.5042 42.3705C24.3499 42.4561 24.1764 42.5009 24 42.5009C23.8236 42.5009 23.6501 42.4561 23.4958 42.3705C23.3415 42.285 23.2115 42.1616 23.118 42.012L20.536 43.54C22.082 46.154 25.916 46.154 27.464 43.54L24.882 42.012ZM21 5.5H27V2.5H21V5.5ZM42.5 21V23H45.5V21H42.5ZM15.606 36.484C13.094 36.44 11.778 36.28 10.746 35.852L9.6 38.624C11.21 39.292 13.042 39.442 15.554 39.486L15.606 36.484ZM3.376 32.4C3.95393 33.7953 4.80104 35.0631 5.86896 36.131C6.93688 37.199 8.20469 38.0461 9.6 38.624L10.746 35.852C8.66336 34.9893 7.0107 33.3346 6.148 31.252L3.376 32.4ZM42.5 23C42.5 25.35 42.5 27.038 42.408 28.37C42.318 29.688 42.146 30.548 41.854 31.252L44.624 32.4C45.094 31.268 45.3 30.044 45.402 28.574C45.502 27.116 45.5 25.31 45.5 23H42.5ZM32.446 39.482C34.958 39.44 36.79 39.292 38.4 38.624L37.252 35.852C36.222 36.28 34.906 36.44 32.396 36.484L32.446 39.482ZM41.854 31.252C40.9913 33.3346 39.3366 34.9893 37.254 35.852L38.4 38.624C39.7953 38.0461 41.0631 37.199 42.131 36.131C43.199 35.0631 44.0461 33.7953 44.624 32.4L41.854 31.252ZM27 5.5C30.302 5.5 32.674 5.5 34.524 5.678C36.352 5.852 37.514 6.184 38.442 6.752L40.008 4.194C38.53 3.29 36.854 2.886 34.808 2.69C32.784 2.498 30.244 2.5 27 2.5V5.5ZM45.5 21C45.5 17.756 45.5 15.218 45.308 13.192C45.114 11.146 44.71 9.468 43.806 7.992L41.246 9.558C41.816 10.486 42.148 11.648 42.322 13.478C42.498 15.326 42.5 17.698 42.5 21H45.5ZM38.44 6.752C39.5844 7.45259 40.5466 8.41415 41.248 9.558L43.806 7.992C42.8575 6.44396 41.556 5.14246 40.008 4.194L38.44 6.752ZM21 2.5C17.756 2.5 15.218 2.5 13.192 2.69C11.146 2.886 9.468 3.29 7.992 4.194L9.558 6.754C10.486 6.184 11.648 5.852 13.478 5.678C15.326 5.502 17.698 5.5 21 5.5V2.5ZM5.5 21C5.5 17.698 5.5 15.326 5.678 13.476C5.852 11.648 6.184 10.486 6.752 9.558L4.194 7.994C3.29 9.47 2.886 11.146 2.69 13.192C2.5 15.22 2.5 17.756 2.5 21H5.5ZM7.992 4.194C6.44395 5.14246 5.14246 6.44596 4.194 7.994L6.754 9.558C7.45427 8.41461 8.4151 7.45309 9.558 6.752L7.992 4.194ZM22.032 40.18C21.628 39.494 21.272 38.888 20.924 38.412C20.5674 37.8889 20.1022 37.4489 19.56 37.122L18.052 39.716C18.146 39.772 18.276 39.872 18.5 40.18C18.742 40.512 19.016 40.972 19.452 41.708L22.032 40.18ZM15.554 39.482C16.434 39.498 16.988 39.51 17.412 39.556C17.808 39.6 17.962 39.664 18.052 39.716L19.56 37.122C19.0011 36.8092 18.3807 36.6222 17.742 36.574C17.146 36.508 16.43 36.498 15.606 36.484L15.554 39.482ZM28.548 41.708C28.984 40.974 29.258 40.512 29.5 40.18C29.724 39.872 29.854 39.772 29.948 39.716L28.44 37.122C27.86 37.462 27.44 37.912 27.076 38.412C26.73 38.888 26.372 39.492 25.966 40.18L28.548 41.708ZM32.396 36.484C31.572 36.498 30.854 36.508 30.258 36.574C29.636 36.644 29.026 36.782 28.44 37.122L29.948 39.716C30.038 39.664 30.192 39.6 30.588 39.556C31.012 39.51 31.568 39.496 32.448 39.482L32.396 36.484Z"/>
</mask>
<path d="M2.5 21C2.5 21.3978 2.65804 21.7794 2.93934 22.0607C3.22064 22.342 3.60218 22.5 4 22.5C4.39782 22.5 4.77936 22.342 5.06066 22.0607C5.34196 21.7794 5.5 21.3978 5.5 21H2.5ZM6.148 31.252C5.99577 30.8844 5.70374 30.5924 5.33617 30.4401C4.9686 30.2878 4.55559 30.2878 4.188 30.44C3.82041 30.5922 3.52835 30.8843 3.37607 31.2518C3.22379 31.6194 3.22377 32.0324 3.376 32.4L6.148 31.252ZM27.464 43.54L28.548 41.708L25.968 40.18L24.882 42.012L27.464 43.54ZM19.452 41.708L20.536 43.54L23.116 42.012L22.034 40.18L19.452 41.708ZM24.882 42.012C24.7885 42.1616 24.6585 42.285 24.5042 42.3705C24.3499 42.4561 24.1764 42.5009 24 42.5009C23.8236 42.5009 23.6501 42.4561 23.4958 42.3705C23.3415 42.285 23.2115 42.1616 23.118 42.012L20.536 43.54C22.082 46.154 25.916 46.154 27.464 43.54L24.882 42.012ZM21 5.5H27V2.5H21V5.5ZM42.5 21V23H45.5V21H42.5ZM15.606 36.484C13.094 36.44 11.778 36.28 10.746 35.852L9.6 38.624C11.21 39.292 13.042 39.442 15.554 39.486L15.606 36.484ZM3.376 32.4C3.95393 33.7953 4.80104 35.0631 5.86896 36.131C6.93688 37.199 8.20469 38.0461 9.6 38.624L10.746 35.852C8.66336 34.9893 7.0107 33.3346 6.148 31.252L3.376 32.4ZM42.5 23C42.5 25.35 42.5 27.038 42.408 28.37C42.318 29.688 42.146 30.548 41.854 31.252L44.624 32.4C45.094 31.268 45.3 30.044 45.402 28.574C45.502 27.116 45.5 25.31 45.5 23H42.5ZM32.446 39.482C34.958 39.44 36.79 39.292 38.4 38.624L37.252 35.852C36.222 36.28 34.906 36.44 32.396 36.484L32.446 39.482ZM41.854 31.252C40.9913 33.3346 39.3366 34.9893 37.254 35.852L38.4 38.624C39.7953 38.0461 41.0631 37.199 42.131 36.131C43.199 35.0631 44.0461 33.7953 44.624 32.4L41.854 31.252ZM27 5.5C30.302 5.5 32.674 5.5 34.524 5.678C36.352 5.852 37.514 6.184 38.442 6.752L40.008 4.194C38.53 3.29 36.854 2.886 34.808 2.69C32.784 2.498 30.244 2.5 27 2.5V5.5ZM45.5 21C45.5 17.756 45.5 15.218 45.308 13.192C45.114 11.146 44.71 9.468 43.806 7.992L41.246 9.558C41.816 10.486 42.148 11.648 42.322 13.478C42.498 15.326 42.5 17.698 42.5 21H45.5ZM38.44 6.752C39.5844 7.45259 40.5466 8.41415 41.248 9.558L43.806 7.992C42.8575 6.44396 41.556 5.14246 40.008 4.194L38.44 6.752ZM21 2.5C17.756 2.5 15.218 2.5 13.192 2.69C11.146 2.886 9.468 3.29 7.992 4.194L9.558 6.754C10.486 6.184 11.648 5.852 13.478 5.678C15.326 5.502 17.698 5.5 21 5.5V2.5ZM5.5 21C5.5 17.698 5.5 15.326 5.678 13.476C5.852 11.648 6.184 10.486 6.752 9.558L4.194 7.994C3.29 9.47 2.886 11.146 2.69 13.192C2.5 15.22 2.5 17.756 2.5 21H5.5ZM7.992 4.194C6.44395 5.14246 5.14246 6.44596 4.194 7.994L6.754 9.558C7.45427 8.41461 8.4151 7.45309 9.558 6.752L7.992 4.194ZM22.032 40.18C21.628 39.494 21.272 38.888 20.924 38.412C20.5674 37.8889 20.1022 37.4489 19.56 37.122L18.052 39.716C18.146 39.772 18.276 39.872 18.5 40.18C18.742 40.512 19.016 40.972 19.452 41.708L22.032 40.18ZM15.554 39.482C16.434 39.498 16.988 39.51 17.412 39.556C17.808 39.6 17.962 39.664 18.052 39.716L19.56 37.122C19.0011 36.8092 18.3807 36.6222 17.742 36.574C17.146 36.508 16.43 36.498 15.606 36.484L15.554 39.482ZM28.548 41.708C28.984 40.974 29.258 40.512 29.5 40.18C29.724 39.872 29.854 39.772 29.948 39.716L28.44 37.122C27.86 37.462 27.44 37.912 27.076 38.412C26.73 38.888 26.372 39.492 25.966 40.18L28.548 41.708ZM32.396 36.484C31.572 36.498 30.854 36.508 30.258 36.574C29.636 36.644 29.026 36.782 28.44 37.122L29.948 39.716C30.038 39.664 30.192 39.6 30.588 39.556C31.012 39.51 31.568 39.496 32.448 39.482L32.396 36.484Z" fill="white"/>
<path d="M27.464 43.54L26.7001 44.8309L28.2284 42.2494L27.464 43.54ZM9.6 38.624L8.21379 38.0509L10.9859 39.1979L9.6 38.624ZM44.624 32.4L44.0501 33.7859L45.1983 31.0143L44.624 32.4ZM19.56 37.122L20.857 37.8754L18.2632 36.3681L19.56 37.122ZM25.4096 44.0666L26.6996 44.8306L28.2284 42.2494L26.9384 41.4854L25.4096 44.0666ZM28.0215 39.6529L26.7295 38.8889L25.2025 41.4711L26.4945 42.2351L28.0215 39.6529ZM19.9776 39.6534L18.6876 40.4174L20.2164 42.9986L21.5064 42.2346L19.9776 39.6534ZM22.5895 44.0672L23.8815 43.3032L22.3545 40.7209L21.0625 41.4849L22.5895 44.0672ZM5.5 19.5H2.5V22.5H5.5V19.5ZM3.94994 33.7859L6.72194 32.6379L5.57406 29.8661L2.80206 31.0141L3.94994 33.7859ZM14.0802 37.956L14.0542 39.456L17.0538 39.508L17.0798 38.008L14.0802 37.956ZM8.78814 36.6641L8.21415 38.0501L10.9859 39.1979L11.5599 37.8119L8.78814 36.6641ZM42.6641 33.2119L44.0501 33.7859L45.1979 31.0141L43.8119 30.4401L42.6641 33.2119ZM33.9198 37.958L33.8958 36.458L30.8962 36.506L30.9202 38.006L33.9198 37.958ZM36.4401 37.8119L37.0141 39.1979L39.7859 38.0501L39.2119 36.6641L36.4401 37.8119ZM37.9469 4.69053L37.1629 5.97053L39.7211 7.53747L40.5051 6.25747L37.9469 4.69053ZM43.308 10.054L44.588 9.27202L43.024 6.71198L41.744 7.49398L43.308 10.054ZM10.0551 4.69253L9.27113 3.41253L6.71287 4.97947L7.49687 6.25947L10.0551 4.69253ZM6.25601 7.49598L4.97601 6.71398L3.41199 9.27402L4.69199 10.056L6.25601 7.49598ZM20.103 39.1734L20.857 37.8754L18.263 36.3686L17.509 37.6666L20.103 39.1734ZM24.1181 43.3029L26.7001 44.8309L28.2279 42.2491L25.6459 40.7211L24.1181 43.3029ZM28.5 5.5V2.5H25.5V5.5H28.5ZM19.5 2.5V5.5H22.5V2.5H19.5ZM42.5 24.5H45.5V21.5H42.5V24.5ZM45.5 19.5H42.5V22.5H45.5V19.5ZM9.35979 35.2789L8.21379 38.0509L10.9862 39.1971L12.1322 36.4251L9.35979 35.2789ZM41.2797 32.6377L44.0497 33.7857L45.1983 31.0143L42.4283 29.8663L41.2797 32.6377ZM18.2632 36.3681L16.7552 38.9621L19.3488 40.4699L20.8568 37.8759L18.2632 36.3681ZM31.2448 38.9621L29.7368 36.3681L27.1432 37.8759L28.6512 40.4699L31.2448 38.9621ZM27.464 43.54L30.0453 45.0686L30.0459 45.0677L27.464 43.54ZM25.966 40.18L23.3823 38.6553L21.8595 41.2358L24.4381 42.7618L25.966 40.18ZM23.118 42.012L25.6622 40.4224L24.1105 37.9387L21.5901 39.4302L23.118 42.012ZM6.148 31.252L3.37629 32.3999L3.37638 32.4001L6.148 31.252ZM3.376 32.4L0.604291 33.5479L0.604343 33.548L3.376 32.4ZM15.554 39.482L12.5545 39.43L12.5025 42.427L15.4995 42.4815L15.554 39.482ZM9.6 38.624L10.7497 35.853L10.748 35.8523L9.6 38.624ZM44.624 32.4L41.8533 31.2496L41.8523 31.252L44.624 32.4ZM43.806 7.992L46.3643 6.42513L46.3641 6.42473L43.806 7.992ZM4.194 7.994L1.63594 6.42673L1.6357 6.42713L4.194 7.994ZM19.56 37.122L21.1089 34.5528L21.0674 34.5278L21.0252 34.5041L19.56 37.122ZM25.968 40.18L27.4967 37.5987L24.9165 36.0706L23.3874 38.6502L25.968 40.18ZM24.882 42.012L27.4262 43.6016L27.4448 43.5719L27.4626 43.5418L24.882 42.012ZM23.116 42.012L24.6447 44.5933L27.2229 43.0664L25.6991 40.4864L23.116 42.012ZM22.034 40.18L24.6171 38.6544L23.0902 36.069L20.5061 37.5982L22.034 40.18ZM10.746 35.852L11.8953 33.0809L11.8941 33.0804L10.746 35.852ZM15.554 39.486L15.5015 42.4855L18.5016 42.5381L18.5536 39.538L15.554 39.486ZM42.408 28.37L39.4151 28.1633L39.415 28.1656L42.408 28.37ZM41.854 31.252L39.0829 30.1026L39.0824 30.1039L41.854 31.252ZM45.402 28.574L48.3948 28.7817L48.395 28.7793L45.402 28.574ZM32.446 39.482L29.4464 39.532L29.4964 42.5317L32.4962 42.4816L32.446 39.482ZM37.252 35.852L40.0237 34.7041L38.8745 31.9291L36.1008 33.0817L37.252 35.852ZM37.254 35.852L36.1059 33.0804L33.3362 34.2277L34.4816 36.9982L37.254 35.852ZM34.524 5.678L34.2367 8.66421L34.2397 8.6645L34.524 5.678ZM38.442 6.752L36.8759 9.31076L39.4344 10.8767L41.0006 8.31837L38.442 6.752ZM40.008 4.194L41.5753 1.63594L41.5733 1.63475L40.008 4.194ZM34.808 2.69L35.0941 -0.296329L35.0913 -0.296592L34.808 2.69ZM45.308 13.192L48.2946 12.909L48.2946 12.9088L45.308 13.192ZM41.246 9.558L39.6805 6.99885L37.1167 8.56718L38.6897 11.1281L41.246 9.558ZM42.322 13.478L39.3355 13.762L39.3355 13.7624L42.322 13.478ZM38.44 6.752L35.8823 5.18417L34.3136 7.74331L36.8736 9.31059L38.44 6.752ZM41.248 9.558L38.6905 11.1262L40.2576 13.6818L42.8144 12.1166L41.248 9.558ZM13.192 2.69L12.9119 -0.296899L12.9059 -0.296328L13.192 2.69ZM7.992 4.194L6.42513 1.6357L6.42473 1.63594L7.992 4.194ZM9.558 6.754L6.99885 8.31948L8.56718 10.8833L11.1281 9.3103L9.558 6.754ZM13.478 5.678L13.762 8.66453L13.7624 8.66449L13.478 5.678ZM5.678 13.476L8.66421 13.7633L8.6645 13.7603L5.678 13.476ZM6.752 9.558L9.31075 11.1241L10.8776 8.56416L8.31692 6.9985L6.752 9.558ZM2.69 13.192L-0.296335 12.9059L-0.29692 12.9122L2.69 13.192ZM6.754 9.558L5.18997 12.118L7.7472 13.6803L9.31232 11.1248L6.754 9.558ZM9.558 6.752L11.1267 9.3092L13.6816 7.74194L12.1166 5.18563L9.558 6.752ZM22.032 40.18L23.5607 42.7613L26.1357 41.2363L24.617 38.6576L22.032 40.18ZM20.924 38.412L18.4451 40.1017L18.473 40.1426L18.5022 40.1826L20.924 38.412ZM18.052 39.716L19.5874 37.1387L19.5702 37.1284L19.5528 37.1184L18.052 39.716ZM18.5 40.18L16.0738 41.9445L16.0757 41.9471L18.5 40.18ZM17.412 39.556L17.7433 36.5743L17.7356 36.5735L17.412 39.556ZM17.742 36.574L17.4118 39.5558L17.464 39.5616L17.5164 39.5655L17.742 36.574ZM29.5 40.18L31.9243 41.9471L31.9262 41.9445L29.5 40.18ZM29.948 39.716L28.4472 37.1184L28.4298 37.1284L28.4126 37.1387L29.948 39.716ZM28.44 37.122L26.9344 34.5271L26.9228 34.5339L28.44 37.122ZM27.076 38.412L24.6506 36.6463L24.6494 36.6481L27.076 38.412ZM30.258 36.574L29.9278 33.5922L29.9225 33.5928L30.258 36.574ZM30.588 39.556L30.2644 36.5735L30.2567 36.5743L30.588 39.556ZM32.448 39.482L32.4957 42.4816L35.4997 42.4338L35.4476 39.43L32.448 39.482ZM-0.5 21C-0.5 22.1935 -0.0258927 23.3381 0.81802 24.182L5.06066 19.9393C5.34196 20.2206 5.5 20.6022 5.5 21H-0.5ZM0.81802 24.182C1.66193 25.0259 2.80652 25.5 4 25.5V19.5C4.39783 19.5 4.77936 19.658 5.06066 19.9393L0.81802 24.182ZM4 25.5C5.19348 25.5 6.33807 25.0259 7.18198 24.182L2.93934 19.9393C3.22064 19.658 3.60217 19.5 4 19.5V25.5ZM7.18198 24.182C8.02589 23.3381 8.5 22.1935 8.5 21H2.5C2.5 20.6022 2.65804 20.2206 2.93934 19.9393L7.18198 24.182ZM8.91971 30.1041C8.46304 29.0014 7.58703 28.1253 6.48439 27.6685L4.18795 33.2116C3.82045 33.0594 3.52849 32.7674 3.37629 32.3999L8.91971 30.1041ZM6.48439 27.6685C5.38175 27.2117 4.14281 27.2116 3.04012 27.6683L5.33588 33.2117C4.96837 33.3639 4.55544 33.3639 4.18795 33.2116L6.48439 27.6685ZM3.04012 27.6683C1.93743 28.125 1.06131 29.001 0.604503 30.1036L6.14764 32.4C5.99539 32.7675 5.70339 33.0595 5.33588 33.2117L3.04012 27.6683ZM0.604503 30.1036C0.147696 31.2062 0.147619 32.4452 0.604291 33.5479L6.14771 31.2521C6.29991 31.6196 6.29989 32.0326 6.14764 32.4L0.604503 30.1036ZM30.0459 45.0677L31.1299 43.2357L25.9661 40.1803L24.8821 42.0123L30.0459 45.0677ZM30.0767 39.1267L27.4967 37.5987L24.4393 42.7613L27.0193 44.2893L30.0767 39.1267ZM23.3874 38.6502L22.3014 40.4822L27.4626 43.5418L28.5486 41.7098L23.3874 38.6502ZM16.8701 43.2357L17.9541 45.0677L23.1179 42.0123L22.0339 40.1803L16.8701 43.2357ZM22.0647 46.1213L24.6447 44.5933L21.5872 39.4307L19.0072 40.9587L22.0647 46.1213ZM25.6991 40.4864L24.6171 38.6544L19.4509 41.7056L20.5329 43.5376L25.6991 40.4864ZM20.5061 37.5982L17.9241 39.1262L20.9799 44.2898L23.5619 42.7618L20.5061 37.5982ZM22.3378 40.4224C22.514 40.1404 22.759 39.9079 23.0497 39.7467L25.9587 44.9943C26.5581 44.6621 27.0631 44.1828 27.4262 43.6016L22.3378 40.4224ZM23.0497 39.7467C23.3405 39.5855 23.6675 39.5009 24 39.5009V45.5009C24.6853 45.5009 25.3594 45.3266 25.9587 44.9943L23.0497 39.7467ZM24 39.5009C24.3325 39.5009 24.6595 39.5855 24.9503 39.7467L22.0413 44.9943C22.6406 45.3266 23.3147 45.5009 24 45.5009V39.5009ZM24.9503 39.7467C25.241 39.9079 25.486 40.1404 25.6622 40.4224L20.5738 43.6016C20.9369 44.1828 21.4419 44.6621 22.0413 44.9943L24.9503 39.7467ZM21.5901 39.4302L19.0081 40.9582L22.0639 46.1218L24.6459 44.5938L21.5901 39.4302ZM17.9538 45.0672C20.662 49.6462 27.3363 49.6432 30.0453 45.0686L24.8827 42.0114C24.4957 42.6648 23.502 42.6618 23.1182 42.0128L17.9538 45.0672ZM21 8.5H27V2.5H21V8.5ZM27 -0.499999H21V5.5H27V-0.499999ZM39.5 21V23H45.5V21H39.5ZM48.5 23V21H42.5V23H48.5ZM15.6585 33.4845C13.1421 33.4404 12.3469 33.2682 11.8953 33.0809L9.59673 38.6231C11.2091 39.2918 13.0459 39.4396 15.5535 39.4835L15.6585 33.4845ZM8.45031 41.395C10.6372 42.3023 12.9844 42.4415 15.5015 42.4855L15.6065 36.4865C13.0996 36.4426 11.7828 36.2817 10.7497 35.853L8.45031 41.395ZM18.5536 39.538L18.6056 36.536L12.6065 36.432L12.5545 39.434L18.5536 39.538ZM0.604343 33.548C1.33304 35.3073 2.40113 36.9059 3.74764 38.2524L7.99028 34.0097C7.20095 33.2204 6.57482 32.2833 6.14766 31.252L0.604343 33.548ZM3.74764 38.2524C5.09414 39.5989 6.69269 40.667 8.452 41.3957L10.748 35.8523C9.71669 35.4252 8.77961 34.7991 7.99028 34.0097L3.74764 38.2524ZM11.8941 33.0804C10.5478 32.5227 9.47837 31.4528 8.91962 30.1039L3.37638 32.4001C4.54303 35.2165 6.77893 37.4559 9.59791 38.6236L11.8941 33.0804ZM39.5 23C39.5 25.3935 39.4983 26.9591 39.4151 28.1633L45.4009 28.5767C45.5017 27.1169 45.5 25.3065 45.5 23H39.5ZM39.415 28.1656C39.3351 29.3353 39.1967 29.8282 39.0829 30.1026L44.6251 32.4014C45.0953 31.2678 45.3009 30.0407 45.401 28.5744L39.415 28.1656ZM47.3947 33.5504C48.0426 31.9898 48.2825 30.3996 48.3948 28.7817L42.4092 28.3663C42.3175 29.6884 42.1454 30.5462 41.8533 31.2496L47.3947 33.5504ZM48.395 28.7793C48.5037 27.1945 48.5 25.2672 48.5 23H42.5C42.5 25.3528 42.5003 27.0375 42.409 28.3687L48.395 28.7793ZM32.4962 42.4816C35.0121 42.4395 37.3611 42.303 39.5497 41.395L37.2503 35.853C36.2189 36.281 34.9039 36.4405 32.3958 36.4824L32.4962 42.4816ZM41.1717 37.4761L40.0237 34.7041L34.4803 36.9999L35.6283 39.7719L41.1717 37.4761ZM36.1008 33.0817C35.6524 33.268 34.8586 33.4404 32.3434 33.4845L32.4486 39.4835C34.9534 39.4396 36.7916 39.292 38.4032 38.6223L36.1008 33.0817ZM29.3964 36.534L29.4464 39.532L35.4456 39.432L35.3956 36.434L29.3964 36.534ZM39.0824 30.1039C38.5242 31.4515 37.4535 32.5222 36.1059 33.0804L38.4021 38.6236C41.2198 37.4564 43.4584 35.2178 44.6256 32.4001L39.0824 30.1039ZM34.4816 36.9982L35.6276 39.7702L41.1724 37.4778L40.0264 34.7058L34.4816 36.9982ZM39.548 41.3957C41.3073 40.667 42.9059 39.5989 44.2524 38.2524L40.0097 34.0097C39.2204 34.7991 38.2833 35.4252 37.252 35.8523L39.548 41.3957ZM44.2524 38.2524C45.5989 36.9059 46.667 35.3073 47.3957 33.548L41.8523 31.252C41.4252 32.2833 40.7991 33.2204 40.0097 34.0097L44.2524 38.2524ZM27 8.5C30.3636 8.5 32.5643 8.5033 34.2367 8.66421L34.8113 2.69179C32.7837 2.4967 30.2404 2.5 27 2.5V8.5ZM34.2397 8.6645C35.8501 8.81779 36.4988 9.07994 36.8759 9.31076L40.0081 4.19325C38.5292 3.28806 36.8539 2.88621 34.8083 2.6915L34.2397 8.6645ZM41.0006 8.31837L42.5666 5.76037L37.4494 2.62763L35.8834 5.18563L41.0006 8.31837ZM41.5733 1.63475C39.5466 0.395129 37.3593 -0.0793238 35.0941 -0.296328L34.5219 5.67633C36.3487 5.85133 37.5134 6.18487 38.4427 6.75325L41.5733 1.63475ZM35.0913 -0.296592C32.8928 -0.505148 30.1861 -0.499999 27 -0.499999V5.5C30.3019 5.5 32.6752 5.50115 34.5247 5.67659L35.0913 -0.296592ZM48.5 21C48.5 17.8112 48.5031 15.1087 48.2946 12.909L42.3214 13.475C42.4969 15.3273 42.5 17.7008 42.5 21H48.5ZM48.2946 12.9088C48.0797 10.6427 47.6054 8.45156 46.3643 6.42513L41.2477 9.55887C41.8146 10.4844 42.1483 11.6493 42.3214 13.4752L48.2946 12.9088ZM42.2405 5.43285L39.6805 6.99885L42.8115 12.1172L45.3715 10.5512L42.2405 5.43285ZM38.6897 11.1281C38.9199 11.503 39.1821 12.149 39.3355 13.762L45.3085 13.194C45.1139 11.147 44.7121 9.46903 43.8023 7.98786L38.6897 11.1281ZM39.3355 13.7624C39.4948 15.4351 39.5 17.6396 39.5 21H45.5C45.5 17.7564 45.5012 15.2169 45.3085 13.1936L39.3355 13.7624ZM36.8736 9.31059C37.6141 9.76391 38.2367 10.3861 38.6905 11.1262L43.8055 7.98977C42.8565 6.4422 41.5546 5.14127 40.0064 4.19342L36.8736 9.31059ZM42.8144 12.1166L45.3724 10.5506L42.2396 5.43339L39.6816 6.99939L42.8144 12.1166ZM46.3641 6.42473C45.1682 4.47284 43.5272 2.83183 41.5753 1.63594L38.4407 6.75206C39.5849 7.45309 40.5469 8.41507 41.2479 9.55927L46.3641 6.42473ZM37.4503 2.62617L35.8823 5.18417L40.9977 8.31983L42.5657 5.76183L37.4503 2.62617ZM21 -0.499999C17.8106 -0.499999 15.1098 -0.503019 12.9119 -0.296893L13.4721 5.67689C15.3262 5.50302 17.7014 5.5 21 5.5V-0.499999ZM12.9059 -0.296328C10.6419 -0.0794442 8.45124 0.394774 6.42513 1.6357L9.55887 6.7523C10.4848 6.18523 11.6501 5.85145 13.4781 5.67633L12.9059 -0.296328ZM5.43285 5.75948L6.99885 8.31948L12.1172 5.18852L10.5512 2.62852L5.43285 5.75948ZM11.1281 9.3103C11.503 9.08007 12.149 8.8179 13.762 8.66453L13.194 2.69147C11.147 2.88611 9.46903 3.28793 7.98786 4.1977L11.1281 9.3103ZM13.7624 8.66449C15.4351 8.50518 17.6396 8.5 21 8.5V2.5C17.7564 2.5 15.2169 2.49882 13.1936 2.69151L13.7624 8.66449ZM8.5 21C8.5 17.6364 8.5033 15.4357 8.66421 13.7633L2.69179 13.1887C2.4967 15.2163 2.5 17.7596 2.5 21H8.5ZM8.6645 13.7603C8.81779 12.1499 9.07994 11.5012 9.31075 11.1241L4.19325 7.99187C3.28806 9.47075 2.88621 11.1461 2.6915 13.1917L8.6645 13.7603ZM8.31692 6.9985L5.75892 5.4345L2.62908 10.5535L5.18708 12.1175L8.31692 6.9985ZM1.6357 6.42713C0.395022 8.45283 -0.0793734 10.6412 -0.296329 12.9059L5.67633 13.4781C5.85137 11.6508 6.18498 10.4872 6.7523 9.56087L1.6357 6.42713ZM-0.29692 12.9122C-0.503011 15.1119 -0.5 17.8104 -0.5 21H5.5C5.5 17.7016 5.50301 15.3281 5.67692 13.4718L-0.29692 12.9122ZM6.42473 1.63594C4.47147 2.83267 2.83098 4.47622 1.63594 6.42673L6.75206 9.56127C7.45393 8.41569 8.41644 7.45225 9.55927 6.75206L6.42473 1.63594ZM2.62997 10.554L5.18997 12.118L8.31803 6.99796L5.75803 5.43396L2.62997 10.554ZM9.31232 11.1248C9.76544 10.385 10.3872 9.76285 11.1267 9.3092L7.98933 4.1948C6.44306 5.14333 5.14311 6.44421 4.19568 7.99115L9.31232 11.1248ZM12.1166 5.18563L10.5506 2.62763L5.43339 5.76037L6.99939 8.31837L12.1166 5.18563ZM24.617 38.6576C24.2395 38.0165 23.8009 37.264 23.3458 36.6414L18.5022 40.1826C18.7431 40.512 19.0165 40.9715 19.447 41.7024L24.617 38.6576ZM23.4029 36.7223C22.8032 35.8425 22.0208 35.1025 21.1089 34.5528L18.0111 39.6912C18.1836 39.7952 18.3316 39.9352 18.4451 40.1017L23.4029 36.7223ZM16.5166 42.2933C16.4583 42.2586 16.3865 42.2119 16.31 42.1536C16.2359 42.097 16.1766 42.0441 16.1321 42.0007C16.0495 41.92 16.0287 41.8825 16.0738 41.9445L20.9262 38.4155C20.5504 37.8987 20.1382 37.4668 19.5874 37.1387L16.5166 42.2933ZM16.0757 41.9471C16.2135 42.1362 16.4037 42.4484 16.8709 43.237L22.0331 40.179C21.6283 39.4956 21.2705 38.8878 20.9243 38.4129L16.0757 41.9471ZM20.9807 44.2893L23.5607 42.7613L20.5033 37.5987L17.9233 39.1267L20.9807 44.2893ZM15.4995 42.4815C16.4332 42.4985 16.8298 42.5104 17.0884 42.5385L17.7356 36.5735C17.1462 36.5096 16.4348 36.4975 15.6085 36.4825L15.4995 42.4815ZM17.0807 42.5377C17.1714 42.5477 17.1375 42.55 17.0322 42.5203C16.9749 42.5041 16.8975 42.4788 16.8065 42.4405C16.7116 42.4006 16.6255 42.3565 16.5512 42.3136L19.5528 37.1184C18.9691 36.7812 18.3623 36.6431 17.7433 36.5743L17.0807 42.5377ZM21.0252 34.5041C20.0852 33.9781 19.0418 33.6635 17.9676 33.5825L17.5164 39.5655C17.7196 39.5808 17.917 39.6403 18.0948 39.7399L21.0252 34.5041ZM18.0722 33.5922C17.3045 33.5072 16.4248 33.4975 15.657 33.4844L15.555 39.4836C16.4352 39.4985 16.9875 39.5088 17.4118 39.5558L18.0722 33.5922ZM12.6065 36.432L12.5545 39.43L18.5535 39.534L18.6055 36.536L12.6065 36.432ZM31.1273 43.2401C31.5989 42.4462 31.7864 42.1363 31.9243 41.9471L27.0757 38.4129C26.7296 38.8877 26.3691 39.5018 25.9687 40.1759L31.1273 43.2401ZM31.9262 41.9445C31.9713 41.8825 31.9505 41.92 31.8679 42.0007C31.8234 42.0441 31.7641 42.097 31.69 42.1536C31.6135 42.2119 31.5417 42.2586 31.4834 42.2933L28.4126 37.1387C27.8618 37.4668 27.4496 37.8987 27.0738 38.4155L31.9262 41.9445ZM26.9228 34.5339C25.8678 35.1524 25.1606 35.9458 24.6506 36.6463L29.5014 40.1777C29.7194 39.8782 29.8522 39.7716 29.9572 39.7101L26.9228 34.5339ZM24.6494 36.6481C24.202 37.2635 23.7675 38.0026 23.3823 38.6553L28.5497 41.7047C28.9765 40.9814 29.258 40.5125 29.5026 40.1759L24.6494 36.6481ZM24.4381 42.7618L27.0201 44.2898L30.0759 39.1262L27.4939 37.5982L24.4381 42.7618ZM32.345 33.4844C31.5775 33.4975 30.6956 33.5072 29.9278 33.5922L30.5882 39.5558C31.0124 39.5088 31.5665 39.4985 32.447 39.4836L32.345 33.4844ZM29.9225 33.5928C29.0831 33.6873 28.0174 33.8988 26.9344 34.5271L29.9456 39.7169C30.0346 39.6652 30.1889 39.6007 30.5935 39.5552L29.9225 33.5928ZM31.4488 42.3136C31.3745 42.3565 31.2884 42.4006 31.1935 42.4405C31.1025 42.4788 31.0251 42.5041 30.9678 42.5203C30.8625 42.55 30.8286 42.5477 30.9193 42.5377L30.2567 36.5743C29.6377 36.6431 29.0309 36.7812 28.4472 37.1184L31.4488 42.3136ZM30.9116 42.5385C31.1704 42.5104 31.5771 42.4962 32.4957 42.4816L32.4003 36.4824C31.5589 36.4958 30.8536 36.5096 30.2644 36.5735L30.9116 42.5385ZM35.4476 39.43L35.3955 36.432L29.3965 36.536L29.4485 39.534L35.4476 39.43Z" fill="white" mask="url(#path-1-inside-1_579_264)"/>
<path d="M16 22H16.018M23.982 22H24M31.982 22H32" stroke="white" stroke-width="4" stroke-linecap="round" stroke-linejoin="round"/>
</g>
</g>
<defs>
<filter id="filter0_d_579_264" x="-1.5" y="2.5" width="51" height="51.0005" filterUnits="userSpaceOnUse" color-interpolation-filters="sRGB">
<feFlood flood-opacity="0" result="BackgroundImageFix"/>
<feColorMatrix in="SourceAlpha" type="matrix" values="0 0 0 0 0 0 0 0 0 0 0 0 0 0 0 0 0 0 127 0" result="hardAlpha"/>
<feOffset dy="4"/>
<feGaussianBlur stdDeviation="2"/>
<feComposite in2="hardAlpha" operator="out"/>
<feColorMatrix type="matrix" values="0 0 0 0 1 0 0 0 0 1 0 0 0 0 1 0 0 0 0.5 0"/>
<feBlend mode="normal" in2="BackgroundImageFix" result="effect1_dropShadow_579_264"/>
<feBlend mode="normal" in="SourceGraphic" in2="effect1_dropShadow_579_264" result="shape"/>
</filter>
<clipPath id="clip0_579_264">
<rect width="48" height="48" fill="white"/>
</clipPath>
</defs>
</svg>
