<svg width="32" height="32" viewBox="0 0 32 32" fill="none" xmlns="http://www.w3.org/2000/svg">
<circle cx="16" cy="16" r="16" fill="white"/>
<path d="M24.47 19.5287L22.6654 17.724V15.3333C22.6633 13.6812 22.0487 12.0886 20.9405 10.8633C19.8322 9.63809 18.309 8.8673 16.6654 8.70001V7.33334H15.332V8.70001C13.6884 8.8673 12.1652 9.63809 11.0569 10.8633C9.94868 12.0886 9.3341 13.6812 9.33203 15.3333V17.724L7.52736 19.5287C7.40233 19.6537 7.33207 19.8232 7.33203 20V22C7.33203 22.1768 7.40227 22.3464 7.52729 22.4714C7.65232 22.5964 7.82189 22.6667 7.9987 22.6667H12.6654V23.1847C12.6506 24.0305 12.9486 24.852 13.5022 25.4917C14.0558 26.1313 14.8261 26.544 15.6654 26.6507C16.1288 26.6966 16.5968 26.6451 17.0391 26.4993C17.4814 26.3536 17.8884 26.1169 18.2337 25.8044C18.5791 25.492 18.8552 25.1107 19.0444 24.6851C19.2335 24.2595 19.3315 23.7991 19.332 23.3333V22.6667H23.9987C24.1755 22.6667 24.3451 22.5964 24.4701 22.4714C24.5951 22.3464 24.6654 22.1768 24.6654 22V20C24.6653 19.8232 24.5951 19.6537 24.47 19.5287ZM17.9987 23.3333C17.9987 23.8638 17.788 24.3725 17.4129 24.7476C17.0378 25.1226 16.5291 25.3333 15.9987 25.3333C15.4683 25.3333 14.9596 25.1226 14.5845 24.7476C14.2094 24.3725 13.9987 23.8638 13.9987 23.3333V22.6667H17.9987V23.3333ZM23.332 21.3333H8.66536V20.276L10.47 18.4713C10.5951 18.3463 10.6653 18.1768 10.6654 18V15.3333C10.6654 13.9189 11.2273 12.5623 12.2275 11.5621C13.2277 10.5619 14.5842 10 15.9987 10C17.4132 10 18.7697 10.5619 19.7699 11.5621C20.7701 12.5623 21.332 13.9189 21.332 15.3333V18C21.3321 18.1768 21.4023 18.3463 21.5274 18.4713L23.332 20.276V21.3333Z" fill="#FFBE20"/>
</svg>
