<svg width="10" height="10" viewBox="0 0 10 10" fill="none" xmlns="http://www.w3.org/2000/svg">
<path d="M5.10629 2.84065L1 6.94688V9L3.05315 8.99999L7.15943 4.89376M5.10629 2.84065L6.57872 1.36823L6.5796 1.36735C6.78229 1.16467 6.88382 1.06315 7.00085 1.02512C7.10394 0.991626 7.21499 0.991626 7.31808 1.02512C7.43503 1.06312 7.53644 1.16453 7.73884 1.36692L8.63185 2.25993C8.83512 2.46319 8.9368 2.56487 8.97488 2.68207C9.00838 2.78516 9.00837 2.8962 8.97487 2.99929C8.93682 3.1164 8.83529 3.21793 8.63231 3.42091L8.63186 3.42134L7.15943 4.89376M5.10629 2.84065L7.15943 4.89376" stroke="black" stroke-opacity="0.8" stroke-width="0.7" stroke-linecap="round" stroke-linejoin="round"/>
</svg>
