<svg width="32" height="32" viewBox="0 0 32 32" fill="none" xmlns="http://www.w3.org/2000/svg">
<circle cx="16" cy="16" r="16" fill="white"/>
<path d="M14.8473 21.685C12.9372 21.685 11.3183 21.0218 9.99051 19.6955C8.6635 18.37 8 16.7523 8 14.8425C8 12.9326 8.6635 11.3146 9.99051 9.98826C11.3175 8.66196 12.9364 7.9992 14.8473 8C16.7581 8.0008 18.3767 8.66395 19.7029 9.98946C21.0291 11.315 21.6926 12.9326 21.6934 14.8425C21.6934 15.672 21.5464 16.4749 21.2525 17.2511C20.9586 18.0273 20.5723 18.6912 20.0936 19.2429L27.1535 26.2968C27.2651 26.4083 27.3248 26.5456 27.3328 26.7088C27.3399 26.8704 27.2802 27.0149 27.1535 27.1423C27.0261 27.2696 26.8851 27.3333 26.7306 27.3333C26.5761 27.3333 26.4351 27.2696 26.3076 27.1423L19.2489 20.0872C18.6515 20.5959 17.9645 20.9896 17.1879 21.2682C16.4113 21.5469 15.6307 21.6862 14.8461 21.6862M14.8461 20.492C16.4312 20.492 17.7697 19.9467 18.8618 18.856C19.953 17.7654 20.4986 16.4275 20.4986 14.8425C20.4986 13.2575 19.9534 11.92 18.863 10.8301C17.7725 9.74028 16.4344 9.19495 14.8485 9.19415C13.2626 9.19415 11.9241 9.73948 10.8328 10.8301C9.74159 11.9208 9.19558 13.2583 9.19478 14.8425C9.19398 16.4267 9.7396 17.7642 10.8316 18.8548C11.9237 19.9455 13.2618 20.4908 14.8461 20.4908" fill="#FFBE20"/>
<circle cx="16" cy="16" r="16" fill="white"/>
<path d="M14.8473 21.685C12.9372 21.685 11.3183 21.0218 9.99051 19.6955C8.6635 18.37 8 16.7523 8 14.8425C8 12.9326 8.6635 11.3146 9.99051 9.98826C11.3175 8.66196 12.9364 7.9992 14.8473 8C16.7581 8.0008 18.3767 8.66395 19.7029 9.98946C21.0291 11.315 21.6926 12.9326 21.6934 14.8425C21.6934 15.672 21.5464 16.4749 21.2525 17.2511C20.9586 18.0273 20.5723 18.6912 20.0936 19.2429L27.1535 26.2968C27.2651 26.4083 27.3248 26.5456 27.3328 26.7088C27.3399 26.8704 27.2802 27.0149 27.1535 27.1423C27.0261 27.2696 26.8851 27.3333 26.7306 27.3333C26.5761 27.3333 26.4351 27.2696 26.3076 27.1423L19.2489 20.0872C18.6515 20.5959 17.9645 20.9896 17.1879 21.2682C16.4113 21.5469 15.6307 21.6862 14.8461 21.6862M14.8461 20.492C16.4312 20.492 17.7697 19.9467 18.8618 18.856C19.953 17.7654 20.4986 16.4275 20.4986 14.8425C20.4986 13.2575 19.9534 11.92 18.863 10.8301C17.7725 9.74028 16.4344 9.19495 14.8485 9.19415C13.2626 9.19415 11.9241 9.73948 10.8328 10.8301C9.74159 11.9208 9.19558 13.2583 9.19478 14.8425C9.19398 16.4267 9.7396 17.7642 10.8316 18.8548C11.9237 19.9455 13.2618 20.4908 14.8461 20.4908" fill="#FFBE20"/>
</svg>
