<svg width="43" height="43" viewBox="0 0 43 43" fill="none" xmlns="http://www.w3.org/2000/svg">
<path d="M20.5617 31.5C27.7283 31.5 33.9275 27.5225 37.1167 21.6458C33.9275 15.7692 27.7283 11.7917 20.5617 11.7917C13.395 11.7917 7.19583 15.7692 4.00667 21.6458C7.19583 27.5225 13.395 31.5 20.5617 31.5ZM20.5617 10C28.7317 10 35.7908 14.7479 39.1233 21.6458C35.7908 28.5437 28.7317 33.2917 20.5617 33.2917C12.3917 33.2917 5.3325 28.5437 2 21.6458C5.3325 14.7479 12.3917 10 20.5617 10ZM20.5617 13.5833C25.0408 13.5833 28.6242 17.1667 28.6242 21.6458C28.6242 26.125 25.0408 29.7083 20.5617 29.7083C16.0825 29.7083 12.4992 26.125 12.4992 21.6458C12.4992 17.1667 16.0825 13.5833 20.5617 13.5833ZM20.5617 15.375C18.8985 15.375 17.3035 16.0357 16.1275 17.2117C14.9515 18.3877 14.2908 19.9827 14.2908 21.6458C14.2908 23.309 14.9515 24.904 16.1275 26.08C17.3035 27.256 18.8985 27.9167 20.5617 27.9167C22.2248 27.9167 23.8198 27.256 24.9958 26.08C26.1718 24.904 26.8325 23.309 26.8325 21.6458C26.8325 19.9827 26.1718 18.3877 24.9958 17.2117C23.8198 16.0357 22.2248 15.375 20.5617 15.375Z" fill="black"/>
</svg>
